<?xml version="1.0" standalone="no"?>
<!DOCTYPE svg PUBLIC "-//W3C//DTD SVG 20010904//EN"
 "http://www.w3.org/TR/2001/REC-SVG-20010904/DTD/svg10.dtd">
<svg version="1.0" xmlns="http://www.w3.org/2000/svg"
 width="499.000000pt" height="499.000000pt" viewBox="0 0 499.000000 499.000000"
 preserveAspectRatio="xMidYMid meet">
<metadata>
Created by potrace 1.14, written by Peter Selinger 2001-2017
</metadata>
<g transform="translate(0.000000,499.000000) scale(0.100000,-0.100000)"
fill="#000000" stroke="none">
<path d="M2470 3320 c-8 -5 -31 -10 -50 -10 -98 0 -129 -28 -160 -140 l-15
-54 -89 -23 c-151 -39 -216 -97 -203 -180 6 -37 34 -84 53 -90 5 -1 41 22 79
53 112 90 167 112 322 125 114 10 140 9 207 -5 42 -10 76 -19 76 -22 0 -2 -38
-3 -84 -1 -46 1 -87 -1 -91 -5 -12 -12 13 -120 33 -148 58 -78 178 -23 197 90
l6 36 96 -33 c52 -18 99 -30 104 -27 15 9 10 73 -7 110 -32 67 -155 145 -251
160 -34 5 -43 10 -43 26 0 24 -33 90 -54 107 -8 7 -30 17 -48 21 -18 4 -40 10
-48 14 -8 3 -22 1 -30 -4z m113 -82 c11 -15 23 -47 26 -70 l6 -43 54 -7 c96
-14 194 -69 232 -132 34 -56 25 -58 -78 -20 -219 80 -208 78 -348 77 -203 -1
-291 -30 -416 -134 l-46 -38 -12 25 c-15 35 -14 47 9 76 26 34 111 74 190 89
70 14 90 29 90 68 0 32 31 100 55 124 14 15 33 17 118 15 96 -3 101 -4 120
-30z m104 -314 c19 -5 20 -9 12 -32 -17 -43 -40 -62 -75 -62 -36 0 -56 21 -68
73 l-6 27 57 0 c32 0 68 -3 80 -6z"/>
<path d="M2405 2964 c-22 -8 -71 -18 -110 -21 -38 -3 -75 -10 -81 -15 -14 -10
-2 -73 21 -118 14 -27 68 -60 100 -60 40 0 88 34 106 75 20 45 30 146 14 151
-5 1 -28 -4 -50 -12z m12 -85 c-3 -22 -13 -49 -23 -60 -22 -24 -84 -25 -112
-1 -22 18 -40 71 -26 73 5 1 38 7 74 14 99 19 93 20 87 -26z"/>
<path d="M2485 2755 c-49 -7 -125 -16 -167 -20 -117 -11 -123 -33 -35 -137 89
-105 186 -130 299 -75 95 47 178 153 178 230 0 15 -11 17 -92 16 -51 -1 -133
-7 -183 -14z m225 -35 c0 -50 -105 -149 -183 -174 -90 -28 -159 2 -229 99
l-29 40 158 21 c179 24 283 29 283 14z"/>
<path d="M1588 2143 c-2 -27 -2 -123 0 -215 2 -139 5 -168 17 -168 8 0 15 9
15 20 0 25 2 25 42 0 64 -39 160 -17 197 44 89 148 -62 305 -205 211 -13 -8
-26 -15 -29 -15 -3 0 -5 38 -5 85 0 67 -3 85 -14 85 -11 0 -16 -14 -18 -47z
m196 -123 c84 -32 83 -180 -2 -219 -54 -25 -123 5 -148 66 -42 100 48 192 150
153z"/>
<path d="M3160 1975 c0 -184 2 -215 15 -215 11 0 15 12 15 44 0 38 5 48 36 75
42 37 41 38 111 -54 34 -45 55 -65 71 -65 12 0 22 3 22 6 0 3 -26 38 -58 77
-32 40 -62 78 -66 85 -6 10 10 33 50 73 46 47 54 59 38 59 -11 0 -57 -33 -103
-75 -46 -41 -88 -75 -93 -75 -5 0 -9 48 -8 113 2 167 2 167 -15 167 -13 0 -15
-31 -15 -215z"/>
<path d="M1485 2037 c-50 -118 -94 -208 -101 -209 -5 0 -32 51 -60 113 -40 90
-55 115 -73 117 l-21 3 23 -53 c14 -29 43 -95 66 -146 39 -85 42 -96 30 -124
-17 -43 -49 -61 -83 -48 -37 14 -46 13 -46 -5 0 -38 85 -47 125 -12 14 12 51
80 84 152 32 72 68 151 79 177 26 56 26 54 6 62 -10 4 -19 -4 -29 -27z"/>
<path d="M2040 2057 c-65 -17 -101 -68 -102 -148 0 -89 60 -149 149 -149 66 0
132 38 108 62 -3 3 -23 -4 -45 -14 -29 -15 -50 -18 -76 -14 -41 8 -104 60 -89
74 6 5 55 17 110 27 55 9 106 19 113 21 32 9 -4 101 -50 125 -37 20 -81 26
-118 16z m117 -62 c13 -14 23 -32 23 -39 0 -16 -198 -58 -206 -44 -12 19 9 69
39 93 43 35 110 30 144 -10z"/>
<path d="M3561 2059 c-52 -10 -78 -31 -102 -83 -46 -103 24 -216 134 -216 65
0 133 38 110 61 -7 7 -23 2 -47 -12 -46 -27 -94 -20 -138 20 -38 34 -32 46 24
55 24 3 76 14 116 22 79 18 86 28 58 83 -29 55 -88 82 -155 70z m86 -48 c27
-17 52 -56 41 -65 -1 -2 -47 -12 -101 -23 -110 -23 -120 -19 -97 38 28 65 95
87 157 50z"/>
<path d="M1034 2050 c-32 -13 -72 -67 -80 -105 -13 -72 17 -139 76 -170 55
-28 144 -14 179 29 20 24 -14 33 -39 11 -30 -27 -89 -30 -128 -6 -37 24 -52
55 -52 113 0 32 7 47 35 75 33 33 39 35 81 30 25 -2 53 -12 64 -22 13 -12 23
-14 35 -8 15 9 13 13 -15 36 -26 22 -41 27 -83 26 -29 0 -61 -4 -73 -9z"/>
<path d="M2300 1910 c0 -143 1 -150 20 -150 19 0 20 7 20 95 0 118 13 149 70
166 43 13 55 39 18 39 -13 0 -36 -7 -52 -15 -35 -18 -36 -18 -36 0 0 8 -9 15
-20 15 -19 0 -20 -7 -20 -150z"/>
<path d="M2550 2053 c-27 -10 -49 -34 -44 -48 5 -11 12 -10 37 6 45 27 108 25
135 -4 12 -13 22 -35 22 -50 0 -27 0 -27 -74 -27 -63 0 -79 -3 -101 -23 -39
-33 -39 -91 -1 -123 32 -29 101 -32 147 -9 26 14 30 14 35 0 3 -8 13 -15 21
-15 12 0 14 20 11 126 -3 124 -3 126 -31 150 -23 20 -39 24 -85 23 -31 0 -64
-3 -72 -6z m150 -177 c0 -38 -10 -56 -41 -71 -39 -21 -85 -19 -109 5 -24 24
-25 38 -4 68 13 19 24 22 85 22 66 0 69 -1 69 -24z"/>
<path d="M2894 2044 c-48 -24 -77 -84 -72 -151 4 -46 10 -60 40 -90 27 -27 46
-36 81 -40 51 -6 107 9 131 36 28 30 0 36 -48 11 -83 -44 -166 4 -166 95 0 57
14 87 52 110 35 20 99 16 127 -9 25 -23 54 -11 38 15 -24 39 -125 52 -183 23z"/>
<path d="M3810 1910 c0 -143 1 -150 20 -150 19 0 20 7 20 95 0 118 13 149 70
166 23 7 40 18 40 27 0 20 -65 10 -91 -14 -18 -16 -19 -16 -19 4 0 15 -6 22
-20 22 -19 0 -20 -7 -20 -150z"/>
</g>
</svg>
