<?xml version="1.0" standalone="no"?>
<!DOCTYPE svg PUBLIC "-//W3C//DTD SVG 20010904//EN"
 "http://www.w3.org/TR/2001/REC-SVG-20010904/DTD/svg10.dtd">
<svg version="1.0" xmlns="http://www.w3.org/2000/svg"
 width="4168.000000pt" height="4168.000000pt" viewBox="0 0 4168.000000 4168.000000"
 preserveAspectRatio="xMidYMid meet">
<metadata>
Created by potrace 1.14, written by Peter Selinger 2001-2017
</metadata>
<g transform="translate(0.000000,4168.000000) scale(0.100000,-0.100000)"
fill="#000000" stroke="none">
<path d="M16220 27841 l-4615 -2308 -3 -721 c-1 -397 0 -722 2 -722 2 0 2079
1037 4614 2305 2536 1268 4615 2305 4622 2305 15 0 2840 -1412 2840 -1420 0
-5 -252 -132 -1010 -509 -190 -94 -352 -176 -360 -181 -8 -6 -24 -14 -35 -19
-11 -5 -65 -31 -120 -59 -55 -27 -165 -82 -245 -121 -80 -39 -153 -76 -163
-82 -11 -6 -191 -96 -400 -200 -210 -104 -391 -194 -401 -200 -11 -6 -137 -69
-280 -140 -144 -71 -268 -134 -276 -139 -8 -6 -24 -14 -35 -19 -11 -5 -65 -31
-120 -58 -55 -28 -201 -100 -325 -162 -124 -61 -234 -116 -244 -122 -11 -6
-137 -69 -280 -140 -144 -71 -268 -134 -276 -139 -8 -6 -24 -14 -35 -19 -24
-11 -85 -41 -685 -340 -256 -127 -473 -236 -484 -242 -10 -6 -172 -87 -360
-180 -187 -93 -348 -174 -356 -179 -8 -6 -24 -14 -35 -19 -30 -13 -237 -116
-260 -129 -11 -6 -83 -42 -160 -80 -77 -38 -149 -74 -160 -80 -11 -6 -192 -97
-402 -201 -209 -104 -389 -194 -400 -200 -10 -6 -226 -114 -480 -240 -254
-127 -470 -235 -480 -240 -10 -6 -226 -114 -480 -240 -254 -127 -470 -235
-480 -240 -10 -6 -117 -60 -239 -120 -121 -59 -229 -113 -240 -120 -16 -9
-109 -55 -549 -274 -44 -21 -89 -43 -100 -48 -11 -5 -27 -13 -35 -19 -8 -5
-64 -34 -125 -63 -193 -95 -559 -277 -595 -297 -19 -10 -110 -56 -202 -102
l-168 -82 1 -2551 0 -2550 4620 -2308 4619 -2308 4617 2309 4618 2310 3 721
c1 396 0 721 -2 721 -2 0 -2081 -1039 -4620 -2308 l-4616 -2308 -1402 701
c-772 386 -1413 707 -1426 714 -20 11 315 181 3693 1869 2043 1021 3715 1862
3715 1867 0 6 -128 267 -285 580 l-286 571 -2004 -1003 -2005 -1002 -3571
1785 c-1963 982 -3568 1788 -3565 1792 2 4 60 34 128 67 67 33 125 63 126 68
2 4 8 7 13 7 5 0 1553 772 3439 1715 l3430 1715 4620 -2310 4620 -2310 -2
2872 -3 2871 -4615 2308 c-2538 1270 -4617 2308 -4620 2308 -3 0 -2082 -1038
-4620 -2308z m9649 -1651 c255 -128 471 -236 480 -241 9 -4 561 -280 1226
-612 l1210 -604 2 -1421 c1 -879 -2 -1422 -8 -1422 -5 0 -46 19 -92 42 -45 24
-89 45 -97 48 -8 3 -296 147 -640 320 -344 173 -632 317 -640 320 -8 3 -548
273 -1200 600 -652 327 -1192 597 -1200 600 -8 3 -116 57 -240 120 -124 63
-232 117 -240 120 -8 3 -80 39 -160 80 -80 41 -152 77 -160 80 -8 3 -224 111
-480 240 -256 129 -472 237 -480 240 -8 3 -80 39 -160 80 -80 41 -152 77 -160
80 -8 3 -134 65 -280 139 l-265 134 1425 712 1425 713 135 -68 c74 -37 344
-172 599 -300z m-12719 -6528 c30 -15 78 -40 105 -56 28 -15 51 -28 53 -27 1
1 1370 -682 3042 -1518 2078 -1039 3035 -1522 3027 -1529 -7 -5 -647 -327
-1423 -714 l-1411 -706 -1824 913 -1824 912 -2 1426 -1 1426 101 -50 c56 -28
127 -62 157 -77z"/>
</g>
</svg>
